<?xml version="1.0" encoding="UTF-8" standalone="no"?>
<!-- Created with Inkscape (http://www.inkscape.org/) -->

<svg
   width="200pt"
   height="180pt"
   viewBox="0 0 281.25 0"
   id="svg2"
   version="1.1"
   inkscape:version="1.2.1 (9c6d41e410, 2022-07-14)"
   sodipodi:docname="tau_branching_pie_chart_new.svg"
   xmlns:inkscape="http://www.inkscape.org/namespaces/inkscape"
   xmlns:sodipodi="http://sodipodi.sourceforge.net/DTD/sodipodi-0.dtd"
   xmlns="http://www.w3.org/2000/svg"
   xmlns:svg="http://www.w3.org/2000/svg"
   xmlns:rdf="http://www.w3.org/1999/02/22-rdf-syntax-ns#"
   xmlns:cc="http://creativecommons.org/ns#"
   xmlns:dc="http://purl.org/dc/elements/1.1/">
  <sodipodi:namedview
     id="base"
     pagecolor="#ffffff"
     bordercolor="#666666"
     borderopacity="1.0"
     inkscape:pageopacity="0.0"
     inkscape:pageshadow="2"
     inkscape:zoom="2.8284271"
     inkscape:cx="78.842406"
     inkscape:cy="128.1631"
     inkscape:document-units="px"
     inkscape:current-layer="g4371"
     showgrid="false"
     inkscape:window-width="1920"
     inkscape:window-height="1011"
     inkscape:window-x="0"
     inkscape:window-y="32"
     inkscape:window-maximized="1"
     objecttolerance="20"
     width="105mm"
     showguides="true"
     guidetolerance="20"
     inkscape:snap-global="false"
     inkscape:snap-intersection-paths="true"
     inkscape:snap-midpoints="true"
     inkscape:snap-object-midpoints="false"
     inkscape:snap-center="false"
     inkscape:snap-grids="true"
     inkscape:snap-page="true"
     inkscape:object-nodes="true"
     inkscape:guide-bbox="true"
     inkscape:snap-nodes="true"
     inkscape:object-paths="true"
     inkscape:snap-others="true"
     units="pt"
     inkscape:snap-smooth-nodes="true"
     inkscape:snap-bbox="false"
     inkscape:bbox-paths="true"
     inkscape:bbox-nodes="true"
     inkscape:snap-bbox-edge-midpoints="true"
     inkscape:snap-bbox-midpoints="true"
     inkscape:snap-text-baseline="true"
     inkscape:showpageshadow="2"
     inkscape:pagecheckerboard="0"
     inkscape:deskcolor="#d1d1d1">
    <inkscape:grid
       type="xygrid"
       id="grid5531"
       originx="0"
       originy="0"
       spacingx="1"
       spacingy="1" />
  </sodipodi:namedview>
  <defs
     id="defs4">
    <clipPath
       id="clipPath336">
      <path
         clip-rule="nonzero"
         d="m 17,6 h 5 v 3.425781 h -5 z m 0,0"
         id="path4652" />
    </clipPath>
    <clipPath
       id="clipPath4979">
      <path
         clip-rule="nonzero"
         d="m 16,4 h 5 v 3.347656 h -5 z m 0,0"
         id="path7010" />
    </clipPath>
    <clipPath
       id="clipPath9555">
      <path
         clip-rule="nonzero"
         d="m 16,4 h 5 v 3.347656 h -5 z m 0,0"
         id="path8315" />
    </clipPath>
    <clipPath
       id="clipPath442">
      <path
         clip-rule="nonzero"
         d="m 26,6 h 4.964844 v 4.074219 H 26 Z m 0,0"
         id="path8251" />
    </clipPath>
    <clipPath
       id="clipPath3076">
      <path
         clip-rule="nonzero"
         d="m 36,6 h 4 v 4.074219 h -4 z m 0,0"
         id="path9336" />
    </clipPath>
    <clipPath
       id="clipPath1010">
      <path
         clip-rule="nonzero"
         d="m 37,5 h 5 v 3.78125 h -5 z m 0,0"
         id="path2981" />
    </clipPath>
    <clipPath
       id="clipPath5695">
      <path
         clip-rule="nonzero"
         d="m 47,6 h 5 v 4.074219 h -5 z m 0,0"
         id="path2368" />
    </clipPath>
    <clipPath
       id="clipPath3074">
      <path
         clip-rule="nonzero"
         d="m 15,4 h 4 v 3.695312 h -4 z m 0,0"
         id="path5364" />
    </clipPath>
    <clipPath
       id="clipPath331">
      <path
         clip-rule="nonzero"
         d="m 24,4 h 5 v 3.695312 h -5 z m 0,0"
         id="path636" />
    </clipPath>
    <clipPath
       id="clipPath4717">
      <path
         clip-rule="nonzero"
         d="m 16,4 h 5 v 5.167969 h -5 z m 0,0"
         id="path1941" />
    </clipPath>
    <clipPath
       id="clipPath5971">
      <path
         clip-rule="nonzero"
         d="M 0,0 H 20.472656 V 6.8125 H 0 Z m 0,0"
         id="path947" />
    </clipPath>
  </defs>
  <metadata
     id="metadata7">
    <rdf:RDF>
      <cc:Work
         rdf:about="">
        <dc:format>image/svg+xml</dc:format>
        <dc:type
           rdf:resource="http://purl.org/dc/dcmitype/StillImage" />
      </cc:Work>
    </rdf:RDF>
  </metadata>
  <g
     inkscape:label="Layer 1"
     inkscape:groupmode="layer"
     id="layer1"
     transform="translate(0, -927.362)">
    <g
       id="g4344"
       transform="translate(-20.1189, 28.6587)"
       style="display:inline">
      <g
         id="g4371"
         transform="translate(-8.47982, -2.10938e-07)">
        <path
           d="m 153.59874,919.63177 a 91.571724,91.571724 0 0 1 81.591,49.99903 91.571724,91.571724 0 0 1 -7.50792,95.3972 l -74.08308,-53.8245 z"
           sodipodi:end="0.62831853"
           sodipodi:start="4.712389"
           sodipodi:ry="91.571724"
           sodipodi:rx="91.571724"
           sodipodi:cy="1011.2035"
           sodipodi:cx="153.59874"
           sodipodi:type="arc"
           style="display:inline;fill:#984ea3;fill-opacity:1;stroke:none;stroke-width:3;stroke-miterlimit:4;stroke-dasharray:none;stroke-opacity:1"
           id="path5641-3" />
        <path
           inkscape:connector-curvature="0"
           id="path4333"
           d="m 153.59874,1011.2035 82.41032,-39.92392"
           style="fill:#ffffff;fill-rule:evenodd;stroke:#ffffff;stroke-width:1.79999995;stroke-linecap:butt;stroke-linejoin:miter;stroke-miterlimit:4;stroke-dasharray:none;stroke-opacity:1" />
        <path
           style="fill:#4daf4a;fill-opacity:1;stroke:none;stroke-width:3;stroke-miterlimit:4;stroke-dasharray:none;stroke-opacity:1"
           id="path5641"
           sodipodi:type="arc"
           sodipodi:cx="153.59874"
           sodipodi:cy="1011.2035"
           sodipodi:rx="91.571724"
           sodipodi:ry="91.571724"
           sodipodi:start="0.62831853"
           sodipodi:end="4.712389"
           d="M 227.68182,1065.028 A 91.571724,91.571724 0 0 1 116.35316,1094.8584 91.571724,91.571724 0 0 1 64.028078,992.16466 91.571724,91.571724 0 0 1 153.59874,919.63177 l 0,91.57173 z" />
        <g
           transform="translate(-3.7597655e-7,-8.7890623e-6)"
           id="g4239">
          <path
             style="fill:none;fill-rule:evenodd;stroke:#ffffff;stroke-width:1.79999995;stroke-linecap:butt;stroke-linejoin:miter;stroke-miterlimit:4;stroke-dasharray:none;stroke-opacity:1"
             d="M 153.59874,1011.2035 96.030422,939.99055"
             id="path3377"
             inkscape:connector-curvature="0" />
          <path
             style="fill:none;fill-rule:evenodd;stroke:#ffffff;stroke-width:1.79999995;stroke-linecap:butt;stroke-linejoin:miter;stroke-miterlimit:4;stroke-dasharray:none;stroke-opacity:1"
             d="m 153.59874,1011.2035 -69.40708,59.7332"
             id="path3377-2"
             inkscape:connector-curvature="0" />
          <path
             style="fill:none;fill-rule:evenodd;stroke:#ffffff;stroke-width:1.79999995;stroke-linecap:butt;stroke-linejoin:miter;stroke-miterlimit:4;stroke-dasharray:none;stroke-opacity:1"
             d="M 153.59874,1011.2035 128.438,1099.2509"
             id="path3377-2-8"
             inkscape:connector-curvature="0" />
          <path
             style="fill:none;fill-rule:evenodd;stroke:#ffffff;stroke-width:1.79999995;stroke-linecap:butt;stroke-linejoin:miter;stroke-miterlimit:4;stroke-dasharray:none;stroke-opacity:1"
             d="m 153.59874,1011.2035 27.63984,87.3009"
             id="path3377-2-8-0"
             inkscape:connector-curvature="0" />
          <path
             style="fill:none;fill-rule:evenodd;stroke:#ffffff;stroke-width:1.79999995;stroke-linecap:butt;stroke-linejoin:miter;stroke-miterlimit:4;stroke-dasharray:none;stroke-opacity:1"
             d="m 153.59874,1011.2035 51.47104,75.7373"
             id="path3377-2-8-0-4"
             inkscape:connector-curvature="0" />
        </g>
        <text
           xml:space="preserve"
           style="font-style:normal;font-variant:normal;font-weight:normal;font-stretch:normal;font-size:11.3333px;line-height:0%;font-family:'TeX Gyre Heros';-inkscape-font-specification:'TeX Gyre Heros, Normal';font-variant-ligatures:normal;font-variant-caps:normal;font-variant-numeric:normal;font-variant-east-asian:normal;letter-spacing:0px;word-spacing:0px;fill:#ffffff;fill-opacity:1;stroke:none;stroke-width:1px;stroke-linecap:butt;stroke-linejoin:miter;stroke-opacity:1"
           x="115.49808"
           y="942.40186"
           id="text5661"><tspan
             sodipodi:role="line"
             id="tspan5663"
             x="115.49808"
             y="942.40186"
             style="font-style:normal;font-variant:normal;font-weight:normal;font-stretch:normal;font-size:11.3333px;line-height:1.25;font-family:'TeX Gyre Heros';-inkscape-font-specification:'TeX Gyre Heros, Normal';font-variant-ligatures:normal;font-variant-caps:normal;font-variant-numeric:normal;font-variant-east-asian:normal;fill:#ffffff">11%</tspan></text>
        <text
           xml:space="preserve"
           style="font-style:normal;font-weight:normal;line-height:0%;font-family:'TeX Gyre Heros';letter-spacing:0px;word-spacing:0px;fill:#ffffff;fill-opacity:1;stroke:none;stroke-width:1px;stroke-linecap:butt;stroke-linejoin:miter;stroke-opacity:1;-inkscape-font-specification:'TeX Gyre Heros, Normal';font-stretch:normal;font-variant:normal;font-size:11.33333333px;font-variant-ligatures:normal;font-variant-caps:normal;font-variant-numeric:normal;font-variant-east-asian:normal"
           x="63.746128"
           y="1011.2347"
           id="text5665"><tspan
             sodipodi:role="line"
             id="tspan5667"
             x="63.746128"
             y="1011.2347"
             style="font-style:normal;font-variant:normal;font-weight:normal;font-stretch:normal;font-size:11.33333333px;line-height:1.25;font-family:'TeX Gyre Heros';-inkscape-font-specification:'TeX Gyre Heros, Normal';fill:#ffffff;font-variant-ligatures:normal;font-variant-caps:normal;font-variant-numeric:normal;font-variant-east-asian:normal">25%</tspan></text>
        <text
           xml:space="preserve"
           style="font-style:normal;font-variant:normal;font-weight:normal;font-stretch:normal;font-size:11.3333px;line-height:0%;font-family:'TeX Gyre Heros';-inkscape-font-specification:'TeX Gyre Heros, Normal';font-variant-ligatures:normal;font-variant-caps:normal;font-variant-numeric:normal;font-variant-east-asian:normal;letter-spacing:0px;word-spacing:0px;fill:#ffffff;fill-opacity:1;stroke:none;stroke-width:1px;stroke-linecap:butt;stroke-linejoin:miter;stroke-opacity:1"
           x="102.57259"
           y="1080.1945"
           id="text5669"><tspan
             sodipodi:role="line"
             id="tspan5671"
             x="102.57259"
             y="1080.1945"
             style="font-style:normal;font-variant:normal;font-weight:normal;font-stretch:normal;font-size:11.3333px;line-height:1.25;font-family:'TeX Gyre Heros';-inkscape-font-specification:'TeX Gyre Heros, Normal';font-variant-ligatures:normal;font-variant-caps:normal;font-variant-numeric:normal;font-variant-east-asian:normal">9%</tspan></text>
        <text
           xml:space="preserve"
           style="font-style:normal;font-weight:normal;line-height:0%;font-family:'TeX Gyre Heros';letter-spacing:0px;word-spacing:0px;fill:#ffffff;fill-opacity:1;stroke:none;stroke-width:1px;stroke-linecap:butt;stroke-linejoin:miter;stroke-opacity:1;-inkscape-font-specification:'TeX Gyre Heros, Normal';font-stretch:normal;font-variant:normal;font-size:11.33333333px;font-variant-ligatures:normal;font-variant-caps:normal;font-variant-numeric:normal;font-variant-east-asian:normal"
           x="146.85732"
           y="1092.8085"
           id="text5673"><tspan
             sodipodi:role="line"
             id="tspan5675"
             x="146.85732"
             y="1092.8085"
             style="font-size:11.33333333px;line-height:1.25;-inkscape-font-specification:'TeX Gyre Heros, Normal';font-family:'TeX Gyre Heros';font-weight:normal;font-style:normal;font-stretch:normal;font-variant:normal;font-variant-ligatures:normal;font-variant-caps:normal;font-variant-numeric:normal;font-variant-east-asian:normal">9%</tspan></text>
        <text
           xml:space="preserve"
           style="font-style:normal;font-weight:normal;line-height:0%;font-family:'TeX Gyre Heros';letter-spacing:0px;word-spacing:0px;fill:#ffffff;fill-opacity:1;stroke:none;stroke-width:1px;stroke-linecap:butt;stroke-linejoin:miter;stroke-opacity:1;-inkscape-font-specification:'TeX Gyre Heros, Normal';font-stretch:normal;font-variant:normal;font-size:11.33333333px;font-variant-ligatures:normal;font-variant-caps:normal;font-variant-numeric:normal;font-variant-east-asian:normal"
           x="200.45547"
           y="1071.386"
           id="text5681"><tspan
             sodipodi:role="line"
             id="tspan5683"
             x="200.45547"
             y="1071.386"
             style="font-size:11.33333333px;line-height:1.25;-inkscape-font-specification:'TeX Gyre Heros, Normal';font-family:'TeX Gyre Heros';font-weight:normal;font-style:normal;font-stretch:normal;font-variant:normal;font-variant-ligatures:normal;font-variant-caps:normal;font-variant-numeric:normal;font-variant-east-asian:normal">5%</tspan></text>
        <path
           style="fill:#e41a1c;fill-opacity:1;stroke:none;stroke-width:4.24378109;stroke-miterlimit:4;stroke-dasharray:none;stroke-opacity:1"
           id="path5620"
           sodipodi:type="arc"
           sodipodi:cx="153.59874"
           sodipodi:cy="1011.2035"
           sodipodi:rx="64.610664"
           sodipodi:ry="64.610664"
           sodipodi:start="4.712389"
           sodipodi:end="0.62831853"
           d="m 153.59874,946.59283 a 64.610664,64.610664 0 0 1 57.56852,35.27803 64.610664,64.610664 0 0 1 -5.29739,67.30984 l -52.27113,-37.9772 z" />
        <path
           style="fill:#377eb8;fill-opacity:1;stroke:none;stroke-width:4.24378109;stroke-miterlimit:4;stroke-dasharray:none;stroke-opacity:1"
           id="path5620-5"
           sodipodi:type="arc"
           sodipodi:cx="153.59874"
           sodipodi:cy="1011.2035"
           sodipodi:rx="64.610664"
           sodipodi:ry="64.610664"
           sodipodi:start="0.62831853"
           sodipodi:end="4.712389"
           d="m 205.86987,1049.1807 a 64.610664,64.610664 0 0 1 -78.55066,21.0476 64.610664,64.610664 0 0 1 -36.919237,-72.45812 64.610664,64.610664 0 0 1 63.198767,-51.17735 l 0,64.61067 z" />
        <circle
           style="fill:none;fill-opacity:1;stroke:#ffffff;stroke-width:1.79999995;stroke-miterlimit:4;stroke-dasharray:none;stroke-opacity:1"
           id="path5620-5-3"
           cx="153.59874"
           cy="1011.2035"
           r="64.610664" />
        <path
           style="fill:none;fill-rule:evenodd;stroke:#ffffff;stroke-width:1.79999995;stroke-linecap:butt;stroke-linejoin:miter;stroke-miterlimit:4;stroke-dasharray:none;stroke-opacity:1"
           d="m 153.59874,919.63177 0,91.57173 74.08308,53.8245"
           id="path5708"
           inkscape:connector-curvature="0"
           sodipodi:nodetypes="ccc" />
        <g
           style="fill:#ffffff"
           transform="translate(313.41331,114.92187)"
           id="g3587">
          <text
             id="text5645-5-0"
             y="856.7124"
             x="-154.3063"
             style="font-style:normal;font-variant:normal;font-weight:normal;font-stretch:normal;font-size:11.3333px;line-height:0%;font-family:'TeX Gyre Heros';-inkscape-font-specification:'TeX Gyre Heros, Normal';font-variant-ligatures:normal;font-variant-caps:normal;font-variant-numeric:normal;font-variant-east-asian:normal;text-align:start;letter-spacing:0px;word-spacing:0px;writing-mode:lr-tb;text-anchor:start;fill:#ffffff;fill-opacity:1;stroke:none;stroke-width:1px;stroke-linecap:butt;stroke-linejoin:miter;stroke-opacity:1"
             xml:space="preserve"><tspan
               sodipodi:role="line"
               id="tspan3556"
               x="-154.3063"
               y="856.7124"
               style="font-style:normal;font-variant:normal;font-weight:normal;font-stretch:normal;font-size:11.3333px;line-height:1.25;font-family:'TeX Gyre Heros';-inkscape-font-specification:'TeX Gyre Heros, Normal';font-variant-ligatures:normal;font-variant-caps:normal;font-variant-numeric:normal;font-variant-east-asian:normal">35%</tspan></text>
          <text
             id="text3496"
             y="880.7124"
             x="-154.3063"
             style="font-style:normal;font-variant:normal;font-weight:normal;font-stretch:normal;font-size:11.3333px;line-height:0%;font-family:'TeX Gyre Heros';-inkscape-font-specification:'TeX Gyre Heros, Normal';font-variant-ligatures:normal;font-variant-caps:normal;font-variant-numeric:normal;font-variant-east-asian:normal;text-align:start;letter-spacing:0px;word-spacing:0px;writing-mode:lr-tb;text-anchor:start;fill:#ffffff;fill-opacity:1;stroke:none;stroke-width:1px;stroke-linecap:butt;stroke-linejoin:miter;stroke-opacity:1"
             xml:space="preserve"><tspan
               sodipodi:role="line"
               id="tspan3498"
               x="-154.3063"
               y="880.7124"
               style="font-style:normal;font-variant:normal;font-weight:normal;font-stretch:normal;font-size:11.3333px;line-height:1.25;font-family:'TeX Gyre Heros';-inkscape-font-specification:'TeX Gyre Heros, Normal';font-variant-ligatures:normal;font-variant-caps:normal;font-variant-numeric:normal;font-variant-east-asian:normal">leptonic</tspan></text>
          <text
             id="text3500"
             y="894.7749"
             x="-154.3063"
             style="font-style:normal;font-variant:normal;font-weight:normal;font-stretch:normal;font-size:11.3333px;line-height:0%;font-family:'TeX Gyre Heros';-inkscape-font-specification:'TeX Gyre Heros, Normal';font-variant-ligatures:normal;font-variant-caps:normal;font-variant-numeric:normal;font-variant-east-asian:normal;text-align:start;letter-spacing:0px;word-spacing:0px;writing-mode:lr-tb;text-anchor:start;fill:#ffffff;fill-opacity:1;stroke:none;stroke-width:1px;stroke-linecap:butt;stroke-linejoin:miter;stroke-opacity:1"
             xml:space="preserve"><tspan
               sodipodi:role="line"
               id="tspan3502"
               x="-154.3063"
               y="894.7749"
               style="font-style:normal;font-variant:normal;font-weight:normal;font-stretch:normal;font-size:11.3333px;line-height:1.25;font-family:'TeX Gyre Heros';-inkscape-font-specification:'TeX Gyre Heros, Normal';font-variant-ligatures:normal;font-variant-caps:normal;font-variant-numeric:normal;font-variant-east-asian:normal">decays</tspan></text>
        </g>
        <text
           xml:space="preserve"
           style="font-style:normal;font-variant:normal;font-weight:normal;font-stretch:normal;font-size:11.3333px;line-height:0%;font-family:'TeX Gyre Heros';-inkscape-font-specification:'TeX Gyre Heros, Normal';font-variant-ligatures:normal;font-variant-caps:normal;font-variant-numeric:normal;font-variant-east-asian:normal;letter-spacing:0px;word-spacing:0px;display:inline;fill:#ffffff;fill-opacity:1;stroke:none;stroke-width:1px;stroke-linecap:butt;stroke-linejoin:miter;stroke-opacity:1"
           x="180.00294"
           y="1085.0923"
           id="text5673-2"><tspan
             sodipodi:role="line"
             id="tspan5675-5"
             x="180.00294"
             y="1085.0923"
             style="font-style:normal;font-variant:normal;font-weight:normal;font-stretch:normal;font-size:11.3333px;line-height:1.25;font-family:'TeX Gyre Heros';-inkscape-font-specification:'TeX Gyre Heros, Normal';font-variant-ligatures:normal;font-variant-caps:normal;font-variant-numeric:normal;font-variant-east-asian:normal">5%</tspan></text>
        <flowRoot
           style="font-style:normal;font-weight:normal;line-height:0.01%;font-family:sans-serif;letter-spacing:0px;word-spacing:0px;fill:#000000;fill-opacity:1;stroke:none;stroke-width:1px;stroke-linecap:butt;stroke-linejoin:miter;stroke-opacity:1"
           id="flowRoot4291"
           xml:space="preserve"><flowRegion
             id="flowRegion4293"><rect
               y="99.993622"
               x="296.535"
               height="23.793827"
               width="8.878294"
               id="rect4295" /></flowRegion><flowPara
             id="flowPara4297"
             style="font-size:13.75px;line-height:1.25"> </flowPara></flowRoot>
        <text
           xml:space="preserve"
           style="font-style:normal;font-variant:normal;font-weight:normal;font-stretch:normal;font-size:11.3333px;line-height:0%;font-family:'TeX Gyre Heros';-inkscape-font-specification:'TeX Gyre Heros, Normal';font-variant-ligatures:normal;font-variant-caps:normal;font-variant-numeric:normal;font-variant-east-asian:normal;letter-spacing:0px;word-spacing:0px;display:inline;fill:#ffffff;fill-opacity:1;stroke:none;stroke-width:1px;stroke-linecap:butt;stroke-linejoin:miter;stroke-opacity:1"
           x="185.33549"
           y="950.41687"
           id="text5661-4"><tspan
             sodipodi:role="line"
             id="tspan5663-8"
             x="185.33549"
             y="950.41687"
             style="font-style:normal;font-variant:normal;font-weight:normal;font-stretch:normal;font-size:11.3333px;line-height:1.25;font-family:'TeX Gyre Heros';-inkscape-font-specification:'TeX Gyre Heros, Normal';font-variant-ligatures:normal;font-variant-caps:normal;font-variant-numeric:normal;font-variant-east-asian:normal;fill:#ffffff">18%</tspan></text>
        <text
           xml:space="preserve"
           style="font-style:normal;font-variant:normal;font-weight:normal;font-stretch:normal;font-size:11.3333px;line-height:0%;font-family:'TeX Gyre Heros';-inkscape-font-specification:'TeX Gyre Heros, Normal';font-variant-ligatures:normal;font-variant-caps:normal;font-variant-numeric:normal;font-variant-east-asian:normal;letter-spacing:0px;word-spacing:0px;display:inline;fill:#ffffff;fill-opacity:1;stroke:none;stroke-width:1px;stroke-linecap:butt;stroke-linejoin:miter;stroke-opacity:1"
           x="219.35847"
           y="1021.4924"
           id="text5661-4-0"><tspan
             sodipodi:role="line"
             id="tspan5663-8-4"
             x="219.35847"
             y="1021.4924"
             style="font-style:normal;font-variant:normal;font-weight:normal;font-stretch:normal;font-size:11.3333px;line-height:1.25;font-family:'TeX Gyre Heros';-inkscape-font-specification:'TeX Gyre Heros, Normal';font-variant-ligatures:normal;font-variant-caps:normal;font-variant-numeric:normal;font-variant-east-asian:normal;fill:#ffffff">17%</tspan></text>
        <g
           style="fill:#ffffff"
           transform="translate(251.05562,93.534846)"
           id="g3594">
          <text
             id="text5653-5-0"
             y="940.16492"
             x="-103.09989"
             style="font-style:normal;font-variant:normal;font-weight:normal;font-stretch:normal;font-size:11.3333px;line-height:0%;font-family:'TeX Gyre Heros';-inkscape-font-specification:'TeX Gyre Heros, Normal';font-variant-ligatures:normal;font-variant-caps:normal;font-variant-numeric:normal;font-variant-east-asian:normal;text-align:end;letter-spacing:0px;word-spacing:0px;writing-mode:lr-tb;text-anchor:end;opacity:0.95;fill:#ffffff;fill-opacity:1;stroke:none;stroke-width:1px;stroke-linecap:butt;stroke-linejoin:miter;stroke-opacity:1"
             xml:space="preserve"><tspan
               sodipodi:role="line"
               id="tspan3585"
               x="-103.09989"
               y="940.16492"
               style="font-style:normal;font-variant:normal;font-weight:normal;font-stretch:normal;font-size:11.3333px;line-height:1.25;font-family:'TeX Gyre Heros';-inkscape-font-specification:'TeX Gyre Heros, Normal';font-variant-ligatures:normal;font-variant-caps:normal;font-variant-numeric:normal;font-variant-east-asian:normal">65%</tspan></text>
          <text
             id="text3410"
             y="902.10242"
             x="-103.09989"
             style="font-style:normal;font-variant:normal;font-weight:normal;font-stretch:normal;font-size:11.3333px;line-height:0%;font-family:'TeX Gyre Heros';-inkscape-font-specification:'TeX Gyre Heros, Normal';font-variant-ligatures:normal;font-variant-caps:normal;font-variant-numeric:normal;font-variant-east-asian:normal;text-align:end;letter-spacing:0px;word-spacing:0px;writing-mode:lr-tb;text-anchor:end;opacity:0.95;fill:#ffffff;fill-opacity:1;stroke:none;stroke-width:1px;stroke-linecap:butt;stroke-linejoin:miter;stroke-opacity:1"
             xml:space="preserve"><tspan
               sodipodi:role="line"
               id="tspan3412"
               x="-103.09989"
               y="902.10242"
               style="font-style:normal;font-variant:normal;font-weight:normal;font-stretch:normal;font-size:11.3333px;line-height:1.25;font-family:'TeX Gyre Heros';-inkscape-font-specification:'TeX Gyre Heros, Normal';font-variant-ligatures:normal;font-variant-caps:normal;font-variant-numeric:normal;font-variant-east-asian:normal">hadronic</tspan></text>
          <text
             id="text3414"
             y="916.16492"
             x="-103.09989"
             style="font-style:normal;font-variant:normal;font-weight:normal;font-stretch:normal;font-size:11.3333px;line-height:0%;font-family:'TeX Gyre Heros';-inkscape-font-specification:'TeX Gyre Heros, Normal';font-variant-ligatures:normal;font-variant-caps:normal;font-variant-numeric:normal;font-variant-east-asian:normal;text-align:end;letter-spacing:0px;word-spacing:0px;writing-mode:lr-tb;text-anchor:end;opacity:0.95;fill:#ffffff;fill-opacity:1;stroke:none;stroke-width:1px;stroke-linecap:butt;stroke-linejoin:miter;stroke-opacity:1"
             xml:space="preserve"><tspan
               sodipodi:role="line"
               id="tspan3416"
               x="-103.09989"
               y="916.16492"
               style="font-style:normal;font-variant:normal;font-weight:normal;font-stretch:normal;font-size:11.3333px;line-height:1.25;font-family:'TeX Gyre Heros';-inkscape-font-specification:'TeX Gyre Heros, Normal';font-variant-ligatures:normal;font-variant-caps:normal;font-variant-numeric:normal;font-variant-east-asian:normal">decays</tspan></text>
        </g>
        <g
           inkscape:label=""
           transform="translate(102.38791,910.12089)"
           id="g9745">
          <g
             fill="#000000"
             fill-opacity="1"
             id="g26"
             transform="matrix(1.33333,0,0,1.33333,-0.347,-0.1385)">
            <g
               id="use24"
               transform="translate(0.229,5.7979999)">
              <path
                 d="M 5.1875,-4.390625 H 1.75 c -0.921875,0 -1.46875,1.09375 -1.546875,1.28125 H 0.3125 C 0.359375,-3.1875 0.734375,-3.671875 1.25,-3.671875 H 1.765625 L 1.0625,-1.5625 C 0.84375,-0.90625 0.03125,-0.875 0.03125,-0.203125 v 0.046875 c 0,0.171875 0.125,0.265625 0.375,0.265625 0.375,0 0.734375,-0.234375 1.21875,-1.65625 l 0.734375,-2.125 h 1 L 2.875,-1.53125 c -0.078125,0.296875 -0.109375,0.546875 -0.109375,0.75 v 0.078125 c 0,0.4375 0.296875,0.8125 0.78125,0.8125 0.234375,0 0.5,-0.0625 0.5,-0.40625 v -0.03125 c 0,-0.59375 -0.59375,-0.515625 -0.59375,-1.0625 0,-0.078125 0,-0.171875 0.03125,-0.28125 l 0.5,-2 H 5.03125 Z m 0,0"
                 id="path46" />
            </g>
          </g>
          <g
             fill="#000000"
             fill-opacity="1"
             id="g30"
             transform="matrix(1.33333,0,0,1.33333,-0.347,-0.1385)">
            <g
               id="use28"
               transform="translate(5.8080001,2.1819999)">
              <path
                 d="m 4.171875,-1.65625 v -0.421875 h -3.71875 v 0.421875 z m 0,0"
                 id="path50" />
            </g>
          </g>
          <g
             fill="#000000"
             fill-opacity="1"
             id="g34"
             transform="matrix(1.33333,0,0,1.33333,-0.347,-0.1385)">
            <g
               id="use32"
               transform="translate(11.131,5.7979999)">
              <path
                 d="m 4.609375,-4.046875 c 0,-0.0625 -0.03125,-0.34375 -0.359375,-0.34375 -0.65625,0 -0.65625,0.390625 -0.65625,1.078125 0,0.3125 -0.234375,0.765625 -0.78125,1.421875 L 2.015625,-0.9375 c 0,-0.015625 0.125,-0.703125 0.125,-1.1875 0,-1.609375 -0.53125,-2.15625 -0.609375,-2.265625 -0.5,0.21875 -1.15625,0.28125 -1.265625,0.28125 l -0.03125,0.140625 c 0.296875,0 1.21875,0.015625 1.21875,2.28125 0,0.65625 -0.171875,1.6875 -0.171875,1.796875 H 1.578125 C 1.75,-0.09375 4.609375,-3.421875 4.609375,-4.046875 Z m 0,0"
                 id="path54" />
            </g>
          </g>
          <g
             clip-path="url(#clipPath9555)"
             id="g40"
             transform="matrix(1.33333,0,0,1.33333,-0.347,-0.1385)">
            <g
               fill="#000000"
               fill-opacity="1"
               id="g38">
              <g
                 id="use36"
                 transform="translate(16.336,7.2919998)">
                <path
                   d="M 3.765625,-3.203125 H 1.34375 c -0.734375,0 -1.234375,0.796875 -1.328125,0.9375 H 0.15625 c 0.046875,-0.046875 0.375,-0.40625 0.796875,-0.40625 h 0.90625 L 1.25,-1.109375 c -0.09375,0.25 -0.140625,0.453125 -0.140625,0.609375 0,0.3125 0.1875,0.578125 0.609375,0.578125 0.203125,0 0.453125,-0.046875 0.453125,-0.3125 0,-0.40625 -0.390625,-0.375 -0.390625,-0.71875 0,-0.078125 0.015625,-0.15625 0.0625,-0.265625 L 2.359375,-2.671875 H 3.59375 Z m 0,0"
                   id="path58" />
              </g>
            </g>
          </g>
        </g>
        <g
           inkscape:label=""
           transform="translate(17.563798,1000.4897)"
           id="g9942">
          <g
             fill="#000000"
             fill-opacity="1"
             id="g9920"
             transform="matrix(1.33333,0,0,1.33333,-0.347,-0.00366656)">
            <g
               id="g9918"
               transform="translate(0.229,8.5249996)">
              <path
                 d="M 5.1875,-4.390625 H 1.75 c -0.921875,0 -1.46875,1.09375 -1.546875,1.28125 H 0.3125 C 0.359375,-3.1875 0.734375,-3.671875 1.25,-3.671875 H 1.765625 L 1.0625,-1.5625 C 0.84375,-0.90625 0.03125,-0.875 0.03125,-0.203125 v 0.046875 c 0,0.171875 0.125,0.265625 0.375,0.265625 0.375,0 0.734375,-0.234375 1.21875,-1.65625 l 0.734375,-2.125 h 1 L 2.875,-1.53125 c -0.078125,0.296875 -0.109375,0.546875 -0.109375,0.75 v 0.078125 c 0,0.4375 0.296875,0.8125 0.78125,0.8125 0.234375,0 0.5,-0.0625 0.5,-0.40625 v -0.03125 c 0,-0.59375 -0.59375,-0.515625 -0.59375,-1.0625 0,-0.078125 0,-0.171875 0.03125,-0.28125 l 0.5,-2 H 5.03125 Z m 0,0"
                 id="path9916" />
            </g>
          </g>
          <g
             fill="#000000"
             fill-opacity="1"
             id="g9925"
             transform="matrix(1.33333,0,0,1.33333,-0.347,-0.00366656)">
            <g
               id="g9923"
               transform="translate(5.8080001,4.9089999)">
              <path
                 d="m 4.171875,-1.65625 v -0.421875 h -3.71875 v 0.421875 z m 0,0"
                 id="path62" />
            </g>
          </g>
          <g
             fill="#000000"
             fill-opacity="1"
             id="g9930"
             transform="matrix(1.33333,0,0,1.33333,-0.347,-0.00366656)">
            <g
               id="g9928"
               transform="translate(11.161,8.5249996)">
              <path
                 d="M 5.1875,-4.390625 H 1.75 c -0.921875,0 -1.46875,1.09375 -1.546875,1.28125 H 0.3125 C 0.359375,-3.1875 0.734375,-3.671875 1.25,-3.671875 H 1.765625 L 1.0625,-1.5625 C 0.84375,-0.90625 0.03125,-0.875 0.03125,-0.203125 v 0.046875 c 0,0.171875 0.125,0.265625 0.375,0.265625 0.375,0 0.734375,-0.234375 1.21875,-1.65625 l 0.734375,-2.125 h 1 L 2.875,-1.53125 c -0.078125,0.296875 -0.109375,0.546875 -0.109375,0.75 v 0.078125 c 0,0.4375 0.296875,0.8125 0.78125,0.8125 0.234375,0 0.5,-0.0625 0.5,-0.40625 v -0.03125 c 0,-0.59375 -0.59375,-0.515625 -0.59375,-1.0625 0,-0.078125 0,-0.171875 0.03125,-0.28125 l 0.5,-2 H 5.03125 Z m 0,0"
                 id="path66" />
            </g>
          </g>
          <g
             fill="#000000"
             fill-opacity="1"
             id="g42"
             transform="matrix(1.33333,0,0,1.33333,-0.347,-0.00366656)">
            <g
               id="use40"
               transform="translate(16.74,4.9089999)">
              <path
                 d="m 3.453125,-2.390625 c 0,-1.5 -0.65625,-2.515625 -1.609375,-2.515625 -0.390625,0 -0.703125,0.125 -0.96875,0.375 -0.421875,0.40625 -0.703125,1.234375 -0.703125,2.09375 0,0.78125 0.25,1.640625 0.578125,2.046875 0.28125,0.3125 0.640625,0.5 1.0625,0.5 0.375,0 0.6875,-0.125 0.953125,-0.390625 0.421875,-0.390625 0.6875,-1.234375 0.6875,-2.109375 z m -0.6875,0 c 0,1.53125 -0.328125,2.296875 -0.953125,2.296875 -0.625,0 -0.9375,-0.765625 -0.9375,-2.28125 0,-1.546875 0.328125,-2.34375 0.953125,-2.34375 0.609375,0 0.9375,0.8125 0.9375,2.328125 z m 0,0"
                 id="path70" />
            </g>
          </g>
          <g
             fill="#000000"
             fill-opacity="1"
             id="g46"
             transform="matrix(1.33333,0,0,1.33333,-0.347,-0.00366656)">
            <g
               id="use44"
               transform="translate(21.073999,8.5249996)">
              <path
                 d="m 4.609375,-4.046875 c 0,-0.0625 -0.03125,-0.34375 -0.359375,-0.34375 -0.65625,0 -0.65625,0.390625 -0.65625,1.078125 0,0.3125 -0.234375,0.765625 -0.78125,1.421875 L 2.015625,-0.9375 c 0,-0.015625 0.125,-0.703125 0.125,-1.1875 0,-1.609375 -0.53125,-2.15625 -0.609375,-2.265625 -0.5,0.21875 -1.15625,0.28125 -1.265625,0.28125 l -0.03125,0.140625 c 0.296875,0 1.21875,0.015625 1.21875,2.28125 0,0.65625 -0.171875,1.6875 -0.171875,1.796875 H 1.578125 C 1.75,-0.09375 4.609375,-3.421875 4.609375,-4.046875 Z m 0,0"
                 id="path74" />
            </g>
          </g>
          <g
             clip-path="url(#clipPath442)"
             id="g52"
             transform="matrix(1.33333,0,0,1.33333,-0.347,-0.00366656)">
            <g
               fill="#000000"
               fill-opacity="1"
               id="g50">
              <g
                 id="use48"
                 transform="translate(26.278999,10.019)">
                <path
                   d="M 3.765625,-3.203125 H 1.34375 c -0.734375,0 -1.234375,0.796875 -1.328125,0.9375 H 0.15625 c 0.046875,-0.046875 0.375,-0.40625 0.796875,-0.40625 h 0.90625 L 1.25,-1.109375 c -0.09375,0.25 -0.140625,0.453125 -0.140625,0.609375 0,0.3125 0.1875,0.578125 0.609375,0.578125 0.203125,0 0.453125,-0.046875 0.453125,-0.3125 0,-0.40625 -0.390625,-0.375 -0.390625,-0.71875 0,-0.078125 0.015625,-0.15625 0.0625,-0.265625 L 2.359375,-2.671875 H 3.59375 Z m 0,0"
                   id="path78" />
              </g>
            </g>
          </g>
        </g>
        <g
           inkscape:label=""
           transform="translate(56.678205,1094.4419)"
           id="g10204">
          <g
             fill="#000000"
             fill-opacity="1"
             id="g10167"
             transform="matrix(1.33333,0,0,1.33333,-0.347,-0.00366656)">
            <g
               id="g10165"
               transform="translate(0.229,8.5249996)">
              <path
                 d="M 5.1875,-4.390625 H 1.75 c -0.921875,0 -1.46875,1.09375 -1.546875,1.28125 H 0.3125 C 0.359375,-3.1875 0.734375,-3.671875 1.25,-3.671875 H 1.765625 L 1.0625,-1.5625 C 0.84375,-0.90625 0.03125,-0.875 0.03125,-0.203125 v 0.046875 c 0,0.171875 0.125,0.265625 0.375,0.265625 0.375,0 0.734375,-0.234375 1.21875,-1.65625 l 0.734375,-2.125 h 1 L 2.875,-1.53125 c -0.078125,0.296875 -0.109375,0.546875 -0.109375,0.75 v 0.078125 c 0,0.4375 0.296875,0.8125 0.78125,0.8125 0.234375,0 0.5,-0.0625 0.5,-0.40625 v -0.03125 c 0,-0.59375 -0.59375,-0.515625 -0.59375,-1.0625 0,-0.078125 0,-0.171875 0.03125,-0.28125 l 0.5,-2 H 5.03125 Z m 0,0"
                 id="path10163" />
            </g>
          </g>
          <g
             fill="#000000"
             fill-opacity="1"
             id="g10173"
             transform="matrix(1.33333,0,0,1.33333,-0.347,-0.00366656)">
            <g
               id="g10171"
               transform="translate(5.8080001,4.9089999)">
              <path
                 d="m 4.171875,-1.65625 v -0.421875 h -3.71875 v 0.421875 z m 0,0"
                 id="path10169" />
            </g>
          </g>
          <g
             fill="#000000"
             fill-opacity="1"
             id="g10179"
             transform="matrix(1.33333,0,0,1.33333,-0.347,-0.00366656)">
            <g
               id="g10177"
               transform="translate(11.161,8.5249996)">
              <path
                 d="M 5.1875,-4.390625 H 1.75 c -0.921875,0 -1.46875,1.09375 -1.546875,1.28125 H 0.3125 C 0.359375,-3.1875 0.734375,-3.671875 1.25,-3.671875 H 1.765625 L 1.0625,-1.5625 C 0.84375,-0.90625 0.03125,-0.875 0.03125,-0.203125 v 0.046875 c 0,0.171875 0.125,0.265625 0.375,0.265625 0.375,0 0.734375,-0.234375 1.21875,-1.65625 l 0.734375,-2.125 h 1 L 2.875,-1.53125 c -0.078125,0.296875 -0.109375,0.546875 -0.109375,0.75 v 0.078125 c 0,0.4375 0.296875,0.8125 0.78125,0.8125 0.234375,0 0.5,-0.0625 0.5,-0.40625 v -0.03125 c 0,-0.59375 -0.59375,-0.515625 -0.59375,-1.0625 0,-0.078125 0,-0.171875 0.03125,-0.28125 l 0.5,-2 H 5.03125 Z m 0,0"
                 id="path10175" />
            </g>
          </g>
          <g
             fill="#000000"
             fill-opacity="1"
             id="g10185"
             transform="matrix(1.33333,0,0,1.33333,-0.347,-0.00366656)">
            <g
               id="g10183"
               transform="translate(16.74,4.9089999)">
              <path
                 d="m 3.453125,-2.390625 c 0,-1.5 -0.65625,-2.515625 -1.609375,-2.515625 -0.390625,0 -0.703125,0.125 -0.96875,0.375 -0.421875,0.40625 -0.703125,1.234375 -0.703125,2.09375 0,0.78125 0.25,1.640625 0.578125,2.046875 0.28125,0.3125 0.640625,0.5 1.0625,0.5 0.375,0 0.6875,-0.125 0.953125,-0.390625 0.421875,-0.390625 0.6875,-1.234375 0.6875,-2.109375 z m -0.6875,0 c 0,1.53125 -0.328125,2.296875 -0.953125,2.296875 -0.625,0 -0.9375,-0.765625 -0.9375,-2.28125 0,-1.546875 0.328125,-2.34375 0.953125,-2.34375 0.609375,0 0.9375,0.8125 0.9375,2.328125 z m 0,0"
                 id="path10181" />
            </g>
          </g>
          <g
             fill="#000000"
             fill-opacity="1"
             id="g10190"
             transform="matrix(1.33333,0,0,1.33333,-0.347,-0.00366656)">
            <g
               id="g10188"
               transform="translate(21.104,8.5249996)">
              <path
                 d="M 5.1875,-4.390625 H 1.75 c -0.921875,0 -1.46875,1.09375 -1.546875,1.28125 H 0.3125 C 0.359375,-3.1875 0.734375,-3.671875 1.25,-3.671875 H 1.765625 L 1.0625,-1.5625 C 0.84375,-0.90625 0.03125,-0.875 0.03125,-0.203125 v 0.046875 c 0,0.171875 0.125,0.265625 0.375,0.265625 0.375,0 0.734375,-0.234375 1.21875,-1.65625 l 0.734375,-2.125 h 1 L 2.875,-1.53125 c -0.078125,0.296875 -0.109375,0.546875 -0.109375,0.75 v 0.078125 c 0,0.4375 0.296875,0.8125 0.78125,0.8125 0.234375,0 0.5,-0.0625 0.5,-0.40625 v -0.03125 c 0,-0.59375 -0.59375,-0.515625 -0.59375,-1.0625 0,-0.078125 0,-0.171875 0.03125,-0.28125 l 0.5,-2 H 5.03125 Z m 0,0"
                 id="path82" />
            </g>
          </g>
          <g
             fill="#000000"
             fill-opacity="1"
             id="g10195"
             transform="matrix(1.33333,0,0,1.33333,-0.347,-0.00366656)">
            <g
               id="g10193"
               transform="translate(26.683001,4.9089999)">
              <path
                 d="m 3.453125,-2.390625 c 0,-1.5 -0.65625,-2.515625 -1.609375,-2.515625 -0.390625,0 -0.703125,0.125 -0.96875,0.375 -0.421875,0.40625 -0.703125,1.234375 -0.703125,2.09375 0,0.78125 0.25,1.640625 0.578125,2.046875 0.28125,0.3125 0.640625,0.5 1.0625,0.5 0.375,0 0.6875,-0.125 0.953125,-0.390625 0.421875,-0.390625 0.6875,-1.234375 0.6875,-2.109375 z m -0.6875,0 c 0,1.53125 -0.328125,2.296875 -0.953125,2.296875 -0.625,0 -0.9375,-0.765625 -0.9375,-2.28125 0,-1.546875 0.328125,-2.34375 0.953125,-2.34375 0.609375,0 0.9375,0.8125 0.9375,2.328125 z m 0,0"
                 id="path86" />
            </g>
          </g>
          <g
             fill="#000000"
             fill-opacity="1"
             id="g54"
             transform="matrix(1.33333,0,0,1.33333,-0.347,-0.00366656)">
            <g
               id="use52"
               transform="translate(31.016001,8.5249996)">
              <path
                 d="m 4.609375,-4.046875 c 0,-0.0625 -0.03125,-0.34375 -0.359375,-0.34375 -0.65625,0 -0.65625,0.390625 -0.65625,1.078125 0,0.3125 -0.234375,0.765625 -0.78125,1.421875 L 2.015625,-0.9375 c 0,-0.015625 0.125,-0.703125 0.125,-1.1875 0,-1.609375 -0.53125,-2.15625 -0.609375,-2.265625 -0.5,0.21875 -1.15625,0.28125 -1.265625,0.28125 l -0.03125,0.140625 c 0.296875,0 1.21875,0.015625 1.21875,2.28125 0,0.65625 -0.171875,1.6875 -0.171875,1.796875 H 1.578125 C 1.75,-0.09375 4.609375,-3.421875 4.609375,-4.046875 Z m 0,0"
                 id="path90" />
            </g>
          </g>
          <g
             clip-path="url(#clipPath3076)"
             id="g60"
             transform="matrix(1.33333,0,0,1.33333,-0.347,-0.00366656)">
            <g
               fill="#000000"
               fill-opacity="1"
               id="g58">
              <g
                 id="use56"
                 transform="translate(36.221001,10.019)">
                <path
                   d="M 3.765625,-3.203125 H 1.34375 c -0.734375,0 -1.234375,0.796875 -1.328125,0.9375 H 0.15625 c 0.046875,-0.046875 0.375,-0.40625 0.796875,-0.40625 h 0.90625 L 1.25,-1.109375 c -0.09375,0.25 -0.140625,0.453125 -0.140625,0.609375 0,0.3125 0.1875,0.578125 0.609375,0.578125 0.203125,0 0.453125,-0.046875 0.453125,-0.3125 0,-0.40625 -0.390625,-0.375 -0.390625,-0.71875 0,-0.078125 0.015625,-0.15625 0.0625,-0.265625 L 2.359375,-2.671875 H 3.59375 Z m 0,0"
                   id="path94" />
              </g>
            </g>
          </g>
        </g>
        <g
           inkscape:label=""
           transform="translate(128.47891,1109.0445)"
           id="g10512">
          <g
             fill="#000000"
             fill-opacity="1"
             id="g29"
             transform="matrix(1.33333,0,0,1.33333,-0.347,0.0758333)">
            <g
               id="use27"
               transform="translate(0.229,7.2309999)">
              <path
                 d="M 5.1875,-4.390625 H 1.75 c -0.921875,0 -1.46875,1.09375 -1.546875,1.28125 H 0.3125 C 0.359375,-3.1875 0.734375,-3.671875 1.25,-3.671875 H 1.765625 L 1.0625,-1.5625 C 0.84375,-0.90625 0.03125,-0.875 0.03125,-0.203125 v 0.046875 c 0,0.171875 0.125,0.265625 0.375,0.265625 0.375,0 0.734375,-0.234375 1.21875,-1.65625 l 0.734375,-2.125 h 1 L 2.875,-1.53125 c -0.078125,0.296875 -0.109375,0.546875 -0.109375,0.75 v 0.078125 c 0,0.4375 0.296875,0.8125 0.78125,0.8125 0.234375,0 0.5,-0.0625 0.5,-0.40625 v -0.03125 c 0,-0.59375 -0.59375,-0.515625 -0.59375,-1.0625 0,-0.078125 0,-0.171875 0.03125,-0.28125 l 0.5,-2 H 5.03125 Z m 0,0"
                 id="path65" />
            </g>
          </g>
          <g
             fill="#000000"
             fill-opacity="1"
             id="g33"
             transform="matrix(1.33333,0,0,1.33333,-0.347,0.0758333)">
            <g
               id="use31"
               transform="translate(5.8080001,3.615)">
              <path
                 d="m 4.171875,-1.65625 v -0.421875 h -3.71875 v 0.421875 z m 0,0"
                 id="path69" />
            </g>
          </g>
          <g
             fill="#000000"
             fill-opacity="1"
             id="g37"
             transform="matrix(1.33333,0,0,1.33333,-0.347,0.0758333)">
            <g
               id="use35"
               transform="translate(11.161,7.2309999)">
              <path
                 d="M 5.1875,-4.390625 H 1.75 c -0.921875,0 -1.46875,1.09375 -1.546875,1.28125 H 0.3125 C 0.359375,-3.1875 0.734375,-3.671875 1.25,-3.671875 H 1.765625 L 1.0625,-1.5625 C 0.84375,-0.90625 0.03125,-0.875 0.03125,-0.203125 v 0.046875 c 0,0.171875 0.125,0.265625 0.375,0.265625 0.375,0 0.734375,-0.234375 1.21875,-1.65625 l 0.734375,-2.125 h 1 L 2.875,-1.53125 c -0.078125,0.296875 -0.109375,0.546875 -0.109375,0.75 v 0.078125 c 0,0.4375 0.296875,0.8125 0.78125,0.8125 0.234375,0 0.5,-0.0625 0.5,-0.40625 v -0.03125 c 0,-0.59375 -0.59375,-0.515625 -0.59375,-1.0625 0,-0.078125 0,-0.171875 0.03125,-0.28125 l 0.5,-2 H 5.03125 Z m 0,0"
                 id="path73" />
            </g>
          </g>
          <g
             fill="#000000"
             fill-opacity="1"
             id="g41"
             transform="matrix(1.33333,0,0,1.33333,-0.347,0.0758333)">
            <g
               id="use39"
               transform="translate(16.74,3.615)">
              <path
                 d="M 1.8125,-2.078125 H 0.21875 V -1.59375 H 1.8125 V 0 H 2.28125 V -1.59375 H 3.875 V -2.078125 H 2.28125 v -1.59375 H 1.8125 Z m 0,0"
                 id="path77" />
            </g>
          </g>
          <g
             fill="#000000"
             fill-opacity="1"
             id="g45"
             transform="matrix(1.33333,0,0,1.33333,-0.347,0.0758333)">
            <g
               id="use43"
               transform="translate(21.569,7.2309999)">
              <path
                 d="M 5.1875,-4.390625 H 1.75 c -0.921875,0 -1.46875,1.09375 -1.546875,1.28125 H 0.3125 C 0.359375,-3.1875 0.734375,-3.671875 1.25,-3.671875 H 1.765625 L 1.0625,-1.5625 C 0.84375,-0.90625 0.03125,-0.875 0.03125,-0.203125 v 0.046875 c 0,0.171875 0.125,0.265625 0.375,0.265625 0.375,0 0.734375,-0.234375 1.21875,-1.65625 l 0.734375,-2.125 h 1 L 2.875,-1.53125 c -0.078125,0.296875 -0.109375,0.546875 -0.109375,0.75 v 0.078125 c 0,0.4375 0.296875,0.8125 0.78125,0.8125 0.234375,0 0.5,-0.0625 0.5,-0.40625 v -0.03125 c 0,-0.59375 -0.59375,-0.515625 -0.59375,-1.0625 0,-0.078125 0,-0.171875 0.03125,-0.28125 l 0.5,-2 H 5.03125 Z m 0,0"
                 id="path81" />
            </g>
          </g>
          <g
             fill="#000000"
             fill-opacity="1"
             id="g49"
             transform="matrix(1.33333,0,0,1.33333,-0.347,0.0758333)">
            <g
               id="use47"
               transform="translate(27.148001,3.615)">
              <path
                 d="m 4.171875,-1.65625 v -0.421875 h -3.71875 v 0.421875 z m 0,0"
                 id="path85" />
            </g>
          </g>
          <g
             fill="#000000"
             fill-opacity="1"
             id="g53"
             transform="matrix(1.33333,0,0,1.33333,-0.347,0.0758333)">
            <g
               id="use51"
               transform="translate(32.471001,7.2309999)">
              <path
                 d="m 4.609375,-4.046875 c 0,-0.0625 -0.03125,-0.34375 -0.359375,-0.34375 -0.65625,0 -0.65625,0.390625 -0.65625,1.078125 0,0.3125 -0.234375,0.765625 -0.78125,1.421875 L 2.015625,-0.9375 c 0,-0.015625 0.125,-0.703125 0.125,-1.1875 0,-1.609375 -0.53125,-2.15625 -0.609375,-2.265625 -0.5,0.21875 -1.15625,0.28125 -1.265625,0.28125 l -0.03125,0.140625 c 0.296875,0 1.21875,0.015625 1.21875,2.28125 0,0.65625 -0.171875,1.6875 -0.171875,1.796875 H 1.578125 C 1.75,-0.09375 4.609375,-3.421875 4.609375,-4.046875 Z m 0,0"
                 id="path89" />
            </g>
          </g>
          <g
             clip-path="url(#clipPath1010)"
             id="g59"
             transform="matrix(1.33333,0,0,1.33333,-0.347,0.0758333)">
            <g
               fill="#000000"
               fill-opacity="1"
               id="g57">
              <g
                 id="use55"
                 transform="translate(37.675999,8.7250004)">
                <path
                   d="M 3.765625,-3.203125 H 1.34375 c -0.734375,0 -1.234375,0.796875 -1.328125,0.9375 H 0.15625 c 0.046875,-0.046875 0.375,-0.40625 0.796875,-0.40625 h 0.90625 L 1.25,-1.109375 c -0.09375,0.25 -0.140625,0.453125 -0.140625,0.609375 0,0.3125 0.1875,0.578125 0.609375,0.578125 0.203125,0 0.453125,-0.046875 0.453125,-0.3125 0,-0.40625 -0.390625,-0.375 -0.390625,-0.71875 0,-0.078125 0.015625,-0.15625 0.0625,-0.265625 L 2.359375,-2.671875 H 3.59375 Z m 0,0"
                   id="path93" />
              </g>
            </g>
          </g>
        </g>
        <g
           inkscape:label=""
           transform="translate(193.20073,1094.7161)"
           id="g10901">
          <g
             fill="#000000"
             fill-opacity="1"
             id="g10855"
             transform="matrix(1.33333,0,0,1.33333,-0.347,-0.00366656)">
            <g
               id="g10853"
               transform="translate(0.229,8.5249996)">
              <path
                 d="M 5.1875,-4.390625 H 1.75 c -0.921875,0 -1.46875,1.09375 -1.546875,1.28125 H 0.3125 C 0.359375,-3.1875 0.734375,-3.671875 1.25,-3.671875 H 1.765625 L 1.0625,-1.5625 C 0.84375,-0.90625 0.03125,-0.875 0.03125,-0.203125 v 0.046875 c 0,0.171875 0.125,0.265625 0.375,0.265625 0.375,0 0.734375,-0.234375 1.21875,-1.65625 l 0.734375,-2.125 h 1 L 2.875,-1.53125 c -0.078125,0.296875 -0.109375,0.546875 -0.109375,0.75 v 0.078125 c 0,0.4375 0.296875,0.8125 0.78125,0.8125 0.234375,0 0.5,-0.0625 0.5,-0.40625 v -0.03125 c 0,-0.59375 -0.59375,-0.515625 -0.59375,-1.0625 0,-0.078125 0,-0.171875 0.03125,-0.28125 l 0.5,-2 H 5.03125 Z m 0,0"
                 id="path10851" />
            </g>
          </g>
          <g
             fill="#000000"
             fill-opacity="1"
             id="g10861"
             transform="matrix(1.33333,0,0,1.33333,-0.347,-0.00366656)">
            <g
               id="g10859"
               transform="translate(5.8080001,4.9089999)">
              <path
                 d="m 4.171875,-1.65625 v -0.421875 h -3.71875 v 0.421875 z m 0,0"
                 id="path10857" />
            </g>
          </g>
          <g
             fill="#000000"
             fill-opacity="1"
             id="g10867"
             transform="matrix(1.33333,0,0,1.33333,-0.347,-0.00366656)">
            <g
               id="g10865"
               transform="translate(11.161,8.5249996)">
              <path
                 d="M 5.1875,-4.390625 H 1.75 c -0.921875,0 -1.46875,1.09375 -1.546875,1.28125 H 0.3125 C 0.359375,-3.1875 0.734375,-3.671875 1.25,-3.671875 H 1.765625 L 1.0625,-1.5625 C 0.84375,-0.90625 0.03125,-0.875 0.03125,-0.203125 v 0.046875 c 0,0.171875 0.125,0.265625 0.375,0.265625 0.375,0 0.734375,-0.234375 1.21875,-1.65625 l 0.734375,-2.125 h 1 L 2.875,-1.53125 c -0.078125,0.296875 -0.109375,0.546875 -0.109375,0.75 v 0.078125 c 0,0.4375 0.296875,0.8125 0.78125,0.8125 0.234375,0 0.5,-0.0625 0.5,-0.40625 v -0.03125 c 0,-0.59375 -0.59375,-0.515625 -0.59375,-1.0625 0,-0.078125 0,-0.171875 0.03125,-0.28125 l 0.5,-2 H 5.03125 Z m 0,0"
                 id="path10863" />
            </g>
          </g>
          <g
             fill="#000000"
             fill-opacity="1"
             id="g10873"
             transform="matrix(1.33333,0,0,1.33333,-0.347,-0.00366656)">
            <g
               id="g10871"
               transform="translate(16.74,4.9089999)">
              <path
                 d="M 1.8125,-2.078125 H 0.21875 V -1.59375 H 1.8125 V 0 H 2.28125 V -1.59375 H 3.875 V -2.078125 H 2.28125 v -1.59375 H 1.8125 Z m 0,0"
                 id="path10869" />
            </g>
          </g>
          <g
             fill="#000000"
             fill-opacity="1"
             id="g10879"
             transform="matrix(1.33333,0,0,1.33333,-0.347,-0.00366656)">
            <g
               id="g10877"
               transform="translate(21.569,8.5249996)">
              <path
                 d="M 5.1875,-4.390625 H 1.75 c -0.921875,0 -1.46875,1.09375 -1.546875,1.28125 H 0.3125 C 0.359375,-3.1875 0.734375,-3.671875 1.25,-3.671875 H 1.765625 L 1.0625,-1.5625 C 0.84375,-0.90625 0.03125,-0.875 0.03125,-0.203125 v 0.046875 c 0,0.171875 0.125,0.265625 0.375,0.265625 0.375,0 0.734375,-0.234375 1.21875,-1.65625 l 0.734375,-2.125 h 1 L 2.875,-1.53125 c -0.078125,0.296875 -0.109375,0.546875 -0.109375,0.75 v 0.078125 c 0,0.4375 0.296875,0.8125 0.78125,0.8125 0.234375,0 0.5,-0.0625 0.5,-0.40625 v -0.03125 c 0,-0.59375 -0.59375,-0.515625 -0.59375,-1.0625 0,-0.078125 0,-0.171875 0.03125,-0.28125 l 0.5,-2 H 5.03125 Z m 0,0"
                 id="path10875" />
            </g>
          </g>
          <g
             fill="#000000"
             fill-opacity="1"
             id="g10884"
             transform="matrix(1.33333,0,0,1.33333,-0.347,-0.00366656)">
            <g
               id="g10882"
               transform="translate(27.148001,4.9089999)">
              <path
                 d="m 4.171875,-1.65625 v -0.421875 h -3.71875 v 0.421875 z m 0,0"
                 id="path97" />
            </g>
          </g>
          <g
             fill="#000000"
             fill-opacity="1"
             id="g10889"
             transform="matrix(1.33333,0,0,1.33333,-0.347,-0.00366656)">
            <g
               id="g10887"
               transform="translate(32.500999,8.5249996)">
              <path
                 d="M 5.1875,-4.390625 H 1.75 c -0.921875,0 -1.46875,1.09375 -1.546875,1.28125 H 0.3125 C 0.359375,-3.1875 0.734375,-3.671875 1.25,-3.671875 H 1.765625 L 1.0625,-1.5625 C 0.84375,-0.90625 0.03125,-0.875 0.03125,-0.203125 v 0.046875 c 0,0.171875 0.125,0.265625 0.375,0.265625 0.375,0 0.734375,-0.234375 1.21875,-1.65625 l 0.734375,-2.125 h 1 L 2.875,-1.53125 c -0.078125,0.296875 -0.109375,0.546875 -0.109375,0.75 v 0.078125 c 0,0.4375 0.296875,0.8125 0.78125,0.8125 0.234375,0 0.5,-0.0625 0.5,-0.40625 v -0.03125 c 0,-0.59375 -0.59375,-0.515625 -0.59375,-1.0625 0,-0.078125 0,-0.171875 0.03125,-0.28125 l 0.5,-2 H 5.03125 Z m 0,0"
                 id="path101" />
            </g>
          </g>
          <g
             fill="#000000"
             fill-opacity="1"
             id="g61"
             transform="matrix(1.33333,0,0,1.33333,-0.347,-0.00366656)">
            <g
               id="use59"
               transform="translate(38.080002,4.9089999)">
              <path
                 d="m 3.453125,-2.390625 c 0,-1.5 -0.65625,-2.515625 -1.609375,-2.515625 -0.390625,0 -0.703125,0.125 -0.96875,0.375 -0.421875,0.40625 -0.703125,1.234375 -0.703125,2.09375 0,0.78125 0.25,1.640625 0.578125,2.046875 0.28125,0.3125 0.640625,0.5 1.0625,0.5 0.375,0 0.6875,-0.125 0.953125,-0.390625 0.421875,-0.390625 0.6875,-1.234375 0.6875,-2.109375 z m -0.6875,0 c 0,1.53125 -0.328125,2.296875 -0.953125,2.296875 -0.625,0 -0.9375,-0.765625 -0.9375,-2.28125 0,-1.546875 0.328125,-2.34375 0.953125,-2.34375 0.609375,0 0.9375,0.8125 0.9375,2.328125 z m 0,0"
                 id="path105" />
            </g>
          </g>
          <g
             fill="#000000"
             fill-opacity="1"
             id="g65"
             transform="matrix(1.33333,0,0,1.33333,-0.347,-0.00366656)">
            <g
               id="use63"
               transform="translate(42.414001,8.5249996)">
              <path
                 d="m 4.609375,-4.046875 c 0,-0.0625 -0.03125,-0.34375 -0.359375,-0.34375 -0.65625,0 -0.65625,0.390625 -0.65625,1.078125 0,0.3125 -0.234375,0.765625 -0.78125,1.421875 L 2.015625,-0.9375 c 0,-0.015625 0.125,-0.703125 0.125,-1.1875 0,-1.609375 -0.53125,-2.15625 -0.609375,-2.265625 -0.5,0.21875 -1.15625,0.28125 -1.265625,0.28125 l -0.03125,0.140625 c 0.296875,0 1.21875,0.015625 1.21875,2.28125 0,0.65625 -0.171875,1.6875 -0.171875,1.796875 H 1.578125 C 1.75,-0.09375 4.609375,-3.421875 4.609375,-4.046875 Z m 0,0"
                 id="path109" />
            </g>
          </g>
          <g
             clip-path="url(#clipPath5695)"
             id="g71"
             transform="matrix(1.33333,0,0,1.33333,-0.347,-0.00366656)">
            <g
               fill="#000000"
               fill-opacity="1"
               id="g69">
              <g
                 id="use67"
                 transform="translate(47.618999,10.019)">
                <path
                   d="M 3.765625,-3.203125 H 1.34375 c -0.734375,0 -1.234375,0.796875 -1.328125,0.9375 H 0.15625 c 0.046875,-0.046875 0.375,-0.40625 0.796875,-0.40625 h 0.90625 L 1.25,-1.109375 c -0.09375,0.25 -0.140625,0.453125 -0.140625,0.609375 0,0.3125 0.1875,0.578125 0.609375,0.578125 0.203125,0 0.453125,-0.046875 0.453125,-0.3125 0,-0.40625 -0.390625,-0.375 -0.390625,-0.71875 0,-0.078125 0.015625,-0.15625 0.0625,-0.265625 L 2.359375,-2.671875 H 3.59375 Z m 0,0"
                   id="path113" />
              </g>
            </g>
          </g>
        </g>
        <g
           inkscape:label=""
           transform="translate(198.83485,916.9154)"
           id="g11403">
          <g
             fill="#000000"
             fill-opacity="1"
             id="g36"
             transform="matrix(1.33333,0,0,1.33333,-0.615333,0.0123335)">
            <g
               id="use34"
               transform="translate(0.149,6.1469998)">
              <path
                 d="m 3.6875,-0.96875 -0.125,-0.125 c -0.71875,0.59375 -1.015625,0.75 -1.453125,0.75 -0.5625,0 -0.9375,-0.359375 -0.9375,-0.90625 0,-0.140625 0.03125,-0.28125 0.109375,-0.609375 l 0.28125,-0.03125 c 1.484375,-0.21875 2.546875,-0.96875 2.546875,-1.828125 0,-0.421875 -0.296875,-0.671875 -0.796875,-0.671875 -1.4375,0 -3,1.625 -3,3.140625 0,0.796875 0.53125,1.359375 1.3125,1.359375 0.703125,0 1.46875,-0.40625 2.0625,-1.078125 z m -0.234375,-2.8125 c 0,0.3125 -0.1875,0.671875 -0.5,0.96875 -0.375,0.34375 -0.75,0.53125 -1.609375,0.734375 l 0.171875,-0.4375 c 0.34375,-0.890625 1.078125,-1.65625 1.578125,-1.65625 0.21875,0 0.359375,0.15625 0.359375,0.390625 z m 0,0"
                 id="path11368" />
            </g>
          </g>
          <g
             fill="#000000"
             fill-opacity="1"
             id="g11375"
             transform="matrix(1.33333,0,0,1.33333,-0.615333,0.0123335)">
            <g
               id="use38"
               transform="translate(4.9120002,2.5309999)">
              <path
                 d="m 4.171875,-1.65625 v -0.421875 h -3.71875 v 0.421875 z m 0,0"
                 id="path11372" />
            </g>
          </g>
          <g
             fill="#000000"
             fill-opacity="1"
             id="g44"
             transform="matrix(1.33333,0,0,1.33333,-0.615333,0.0123335)">
            <g
               id="use42"
               transform="translate(11.442,6.1469998)">
              <path
                 d="M 3.203125,-5.609375 V -6.15625 h -3.09375 v 0.546875 z m 0,0"
                 id="path11377" />
            </g>
          </g>
          <g
             fill="#000000"
             fill-opacity="1"
             id="g48"
             transform="matrix(1.33333,0,0,1.33333,-0.615333,0.0123335)">
            <g
               id="use46"
               transform="translate(10.234,6.1469998)">
              <path
                 d="m 4.609375,-4.046875 c 0,-0.0625 -0.03125,-0.34375 -0.359375,-0.34375 -0.65625,0 -0.65625,0.390625 -0.65625,1.078125 0,0.3125 -0.234375,0.765625 -0.78125,1.421875 L 2.015625,-0.9375 c 0,-0.015625 0.125,-0.703125 0.125,-1.1875 0,-1.609375 -0.53125,-2.15625 -0.609375,-2.265625 -0.5,0.21875 -1.15625,0.28125 -1.265625,0.28125 l -0.03125,0.140625 c 0.296875,0 1.21875,0.015625 1.21875,2.28125 0,0.65625 -0.171875,1.6875 -0.171875,1.796875 H 1.578125 C 1.75,-0.09375 4.609375,-3.421875 4.609375,-4.046875 Z m 0,0"
                 id="path11381" />
            </g>
          </g>
          <g
             clip-path="url(#clipPath3074)"
             id="g11390"
             transform="matrix(1.33333,0,0,1.33333,-0.615333,0.0123335)">
            <g
               fill="#000000"
               fill-opacity="1"
               id="g11388">
              <g
                 id="use50"
                 transform="translate(15.039,7.6409998)">
                <path
                   d="M 3.078125,-0.703125 2.96875,-0.796875 C 2.390625,-0.359375 2.125,-0.25 1.765625,-0.25 c -0.46875,0 -0.78125,-0.265625 -0.796875,-0.65625 -0.015625,-0.109375 0,-0.21875 0.0625,-0.4375 L 1.265625,-1.375 c 1.25,-0.15625 2.109375,-0.703125 2.09375,-1.328125 -0.015625,-0.3125 -0.265625,-0.5 -0.6875,-0.5 -1.21875,0 -2.484375,1.1875 -2.453125,2.28125 0.015625,0.59375 0.5,1 1.140625,1 0.609375,0 1.234375,-0.28125 1.71875,-0.78125 z M 2.796875,-2.75 c 0,0.21875 -0.140625,0.484375 -0.390625,0.703125 -0.296875,0.25 -0.609375,0.390625 -1.3125,0.53125 l 0.125,-0.3125 C 1.484375,-2.484375 2.078125,-3.03125 2.5,-3.03125 c 0.1875,0 0.296875,0.109375 0.296875,0.28125 z m 0,0"
                   id="path11385" />
              </g>
            </g>
          </g>
          <g
             fill="#000000"
             fill-opacity="1"
             id="g11396"
             transform="matrix(1.33333,0,0,1.33333,-0.615333,0.0123335)">
            <g
               id="g11394"
               transform="translate(19.601999,6.1469998)">
              <path
                 d="m 4.609375,-4.046875 c 0,-0.0625 -0.03125,-0.34375 -0.359375,-0.34375 -0.65625,0 -0.65625,0.390625 -0.65625,1.078125 0,0.3125 -0.234375,0.765625 -0.78125,1.421875 L 2.015625,-0.9375 c 0,-0.015625 0.125,-0.703125 0.125,-1.1875 0,-1.609375 -0.53125,-2.15625 -0.609375,-2.265625 -0.5,0.21875 -1.15625,0.28125 -1.265625,0.28125 l -0.03125,0.140625 c 0.296875,0 1.21875,0.015625 1.21875,2.28125 0,0.65625 -0.171875,1.6875 -0.171875,1.796875 H 1.578125 C 1.75,-0.09375 4.609375,-3.421875 4.609375,-4.046875 Z m 0,0"
                 id="path11392" />
            </g>
          </g>
          <g
             clip-path="url(#clipPath331)"
             id="g64"
             transform="matrix(1.33333,0,0,1.33333,-0.615333,0.0123335)">
            <g
               fill="#000000"
               fill-opacity="1"
               id="g62">
              <g
                 id="use60"
                 transform="translate(24.806999,7.6409998)">
                <path
                   d="M 3.765625,-3.203125 H 1.34375 c -0.734375,0 -1.234375,0.796875 -1.328125,0.9375 H 0.15625 c 0.046875,-0.046875 0.375,-0.40625 0.796875,-0.40625 h 0.90625 L 1.25,-1.109375 c -0.09375,0.25 -0.140625,0.453125 -0.140625,0.609375 0,0.3125 0.1875,0.578125 0.609375,0.578125 0.203125,0 0.453125,-0.046875 0.453125,-0.3125 0,-0.40625 -0.390625,-0.375 -0.390625,-0.71875 0,-0.078125 0.015625,-0.15625 0.0625,-0.265625 L 2.359375,-2.671875 H 3.59375 Z m 0,0"
                   id="path11398" />
              </g>
            </g>
          </g>
        </g>
        <g
           inkscape:label=""
           transform="translate(250.10008,1013.1271)"
           id="g11906">
          <g
             fill="#000000"
             fill-opacity="1"
             id="g11870"
             transform="matrix(1.33333,0,0,1.33333,0.00850001,0.0123335)">
            <g
               id="g11868"
               transform="translate(0.47799999,6.1469998)">
              <path
                 d="m 4.9375,-0.765625 c 0,-0.0625 -0.015625,-0.09375 -0.046875,-0.09375 C 4.75,-0.859375 4.75,-0.265625 4.21875,-0.265625 4.0625,-0.265625 4,-0.40625 4,-0.59375 c 0,-0.25 0.109375,-0.625 0.203125,-1.03125 L 4.90625,-4.390625 4.03125,-4.25 l -0.796875,3 C 3.21875,-1.203125 2.625,-0.375 2.03125,-0.375 c -0.578125,0 -0.75,-0.515625 -0.75,-0.90625 0,-0.109375 0.015625,-0.21875 0.03125,-0.3125 l 0.71875,-2.796875 -0.75,0.125 L 0.203125,0 c -0.21875,0.8125 -0.609375,1.890625 -0.6875,2.0625 h 0.875 L 1.03125,-0.421875 c 0,0 0.046875,0.53125 0.765625,0.53125 0.796875,0 1.28125,-0.78125 1.390625,-0.90625 -0.015625,0.078125 -0.03125,0.15625 -0.03125,0.21875 0,0.65625 0.609375,0.6875 0.78125,0.6875 h 0.03125 c 0.6875,0 0.96875,-0.640625 0.96875,-0.875 z m 0,0"
                 id="path11866" />
            </g>
          </g>
          <g
             fill="#000000"
             fill-opacity="1"
             id="g11876"
             transform="matrix(1.33333,0,0,1.33333,0.00850001,0.0123335)">
            <g
               id="g11874"
               transform="translate(6.0570002,2.5309999)">
              <path
                 d="m 4.171875,-1.65625 v -0.421875 h -3.71875 v 0.421875 z m 0,0"
                 id="path11872" />
            </g>
          </g>
          <g
             fill="#000000"
             fill-opacity="1"
             id="g11882"
             transform="matrix(1.33333,0,0,1.33333,0.00850001,0.0123335)">
            <g
               id="g11880"
               transform="translate(12.588,6.1469998)">
              <path
                 d="M 3.203125,-5.609375 V -6.15625 h -3.09375 v 0.546875 z m 0,0"
                 id="path11878" />
            </g>
          </g>
          <g
             fill="#000000"
             fill-opacity="1"
             id="g11888"
             transform="matrix(1.33333,0,0,1.33333,0.00850001,0.0123335)">
            <g
               id="g11886"
               transform="translate(11.38,6.1469998)">
              <path
                 d="m 4.609375,-4.046875 c 0,-0.0625 -0.03125,-0.34375 -0.359375,-0.34375 -0.65625,0 -0.65625,0.390625 -0.65625,1.078125 0,0.3125 -0.234375,0.765625 -0.78125,1.421875 L 2.015625,-0.9375 c 0,-0.015625 0.125,-0.703125 0.125,-1.1875 0,-1.609375 -0.53125,-2.15625 -0.609375,-2.265625 -0.5,0.21875 -1.15625,0.28125 -1.265625,0.28125 l -0.03125,0.140625 c 0.296875,0 1.21875,0.015625 1.21875,2.28125 0,0.65625 -0.171875,1.6875 -0.171875,1.796875 H 1.578125 C 1.75,-0.09375 4.609375,-3.421875 4.609375,-4.046875 Z m 0,0"
                 id="path11884" />
            </g>
          </g>
          <g
             clip-path="url(#clipPath4717)"
             id="g51"
             transform="matrix(1.33333,0,0,1.33333,0.00850001,0.0123335)">
            <g
               fill="#000000"
               fill-opacity="1"
               id="g11894">
              <g
                 id="g11892"
                 transform="translate(16.549,7.6420002)">
                <path
                   d="m 3.984375,-0.5625 c 0,-0.046875 -0.015625,-0.0625 -0.03125,-0.0625 -0.109375,0 -0.09375,0.421875 -0.5,0.421875 -0.109375,0 -0.140625,-0.09375 -0.140625,-0.21875 0,-0.203125 0.046875,-0.46875 0.109375,-0.765625 l 0.546875,-1.953125 -0.796875,0.046875 -0.625,2.1875 C 2.53125,-0.875 2.09375,-0.265625 1.640625,-0.265625 c -0.421875,0 -0.5625,-0.375 -0.5625,-0.671875 0,-0.078125 0.03125,-0.15625 0.046875,-0.21875 l 0.53125,-2 L 1,-3.109375 0.15625,0 C 0,0.59375 -0.3125,1.375 -0.375,1.5 h 0.765625 l 0.5,-1.8125 c 0,0 0.03125,0.390625 0.578125,0.390625 0.625,0 1,-0.578125 1.078125,-0.65625 0,0.0625 -0.015625,0.109375 -0.015625,0.15625 0,0.484375 0.5,0.5 0.640625,0.5 h 0.03125 c 0.546875,0 0.78125,-0.46875 0.78125,-0.640625 z m 0,0"
                   id="path11890" />
              </g>
            </g>
          </g>
          <g
             fill="#000000"
             fill-opacity="1"
             id="g55"
             transform="matrix(1.33333,0,0,1.33333,0.00850001,0.0123335)">
            <g
               id="use53"
               transform="translate(21.759001,6.1469998)">
              <path
                 d="m 4.609375,-4.046875 c 0,-0.0625 -0.03125,-0.34375 -0.359375,-0.34375 -0.65625,0 -0.65625,0.390625 -0.65625,1.078125 0,0.3125 -0.234375,0.765625 -0.78125,1.421875 L 2.015625,-0.9375 c 0,-0.015625 0.125,-0.703125 0.125,-1.1875 0,-1.609375 -0.53125,-2.15625 -0.609375,-2.265625 -0.5,0.21875 -1.15625,0.28125 -1.265625,0.28125 l -0.03125,0.140625 c 0.296875,0 1.21875,0.015625 1.21875,2.28125 0,0.65625 -0.171875,1.6875 -0.171875,1.796875 H 1.578125 C 1.75,-0.09375 4.609375,-3.421875 4.609375,-4.046875 Z m 0,0"
                 id="path11897" />
            </g>
          </g>
          <g
             fill="#000000"
             fill-opacity="1"
             id="g11904"
             transform="matrix(1.33333,0,0,1.33333,0.00850001,0.0123335)">
            <g
               id="use57"
               transform="translate(26.964001,7.6420002)">
              <path
                 d="M 3.765625,-3.203125 H 1.34375 c -0.734375,0 -1.234375,0.796875 -1.328125,0.9375 H 0.15625 c 0.046875,-0.046875 0.375,-0.40625 0.796875,-0.40625 h 0.90625 L 1.25,-1.109375 c -0.09375,0.25 -0.140625,0.453125 -0.140625,0.609375 0,0.3125 0.1875,0.578125 0.609375,0.578125 0.203125,0 0.453125,-0.046875 0.453125,-0.3125 0,-0.40625 -0.390625,-0.375 -0.390625,-0.71875 0,-0.078125 0.015625,-0.15625 0.0625,-0.265625 L 2.359375,-2.671875 H 3.59375 Z m 0,0"
                 id="path11901" />
            </g>
          </g>
        </g>
        <g
           inkscape:label=""
           transform="translate(219.69449,1077.7821)"
           id="g12431">
          <g
             clip-path="url(#clipPath5971)"
             id="g12429"
             transform="matrix(1.33333,0,0,1.33333,-1.2797165,-1.1327709)">
            <g
               fill="#000000"
               fill-opacity="1"
               id="g35">
              <g
                 id="use25"
                 transform="translate(0,6.7340002)">
                <path
                   d="m 4.6875,-2.328125 c 0,-1.3125 -0.921875,-2.25 -2.1875,-2.25 -1.296875,0 -2.203125,0.953125 -2.203125,2.328125 0,1.34375 0.921875,2.34375 2.171875,2.34375 1.265625,0 2.21875,-1.046875 2.21875,-2.421875 z m -0.90625,0.34375 c 0,1.125 -0.4375,1.8125 -1.1875,1.8125 -0.390625,0 -0.765625,-0.25 -0.96875,-0.640625 -0.28125,-0.515625 -0.4375,-1.21875 -0.4375,-1.921875 0,-0.953125 0.46875,-1.578125 1.171875,-1.578125 0.84375,0 1.421875,0.96875 1.421875,2.328125 z m 0,0"
                   id="path43" />
              </g>
              <g
                 id="g12419"
                 transform="translate(4.9812999,6.7340002)">
                <path
                   d="m 2.78125,-0.65625 -0.125,-0.109375 c -0.21875,0.25 -0.390625,0.34375 -0.609375,0.34375 -0.359375,0 -0.515625,-0.25 -0.515625,-0.890625 v -2.859375 h 1.015625 v -0.3125 H 1.53125 v -1.15625 c 0,-0.09375 -0.015625,-0.125 -0.0625,-0.125 -0.0625,0.09375 -0.140625,0.1875 -0.203125,0.265625 -0.375,0.5625 -0.703125,0.921875 -0.96875,1.078125 -0.109375,0.0625 -0.171875,0.125 -0.171875,0.1875 0,0.03125 0.015625,0.046875 0.046875,0.0625 h 0.53125 v 3 c 0,0.84375 0.296875,1.265625 0.875,1.265625 0.5,0 0.875,-0.234375 1.203125,-0.75 z m 0,0"
                   id="path47" />
              </g>
              <g
                 id="use29"
                 transform="translate(7.7509031,6.7340002)">
                <path
                   d="M 4.859375,0 V -0.15625 C 4.3125,-0.25 4.25,-0.328125 4.25,-1.015625 V -3 c 0,-1.046875 -0.40625,-1.578125 -1.21875,-1.578125 -0.59375,0 -1,0.234375 -1.46875,0.828125 V -6.78125 L 1.515625,-6.8125 C 1.171875,-6.6875 0.921875,-6.609375 0.375,-6.453125 L 0.09375,-6.375 v 0.171875 c 0.046875,-0.015625 0.078125,-0.015625 0.125,-0.015625 0.421875,0 0.515625,0.078125 0.515625,0.5 v 4.703125 c 0,0.703125 -0.0625,0.78125 -0.640625,0.859375 V 0 H 2.25 V -0.15625 C 1.671875,-0.203125 1.5625,-0.328125 1.5625,-1.015625 v -2.40625 c 0.421875,-0.453125 0.71875,-0.625 1.109375,-0.625 0.5,0 0.75,0.359375 0.75,1.0625 v 1.96875 c 0,0.671875 -0.109375,0.8125 -0.6875,0.859375 V 0 Z m 0,0"
                   id="path51" />
              </g>
              <g
                 id="g12424"
                 transform="translate(12.732203,6.7340002)">
                <path
                   d="M 4.234375,-1.5625 4.0625,-1.640625 C 3.59375,-0.875 3.15625,-0.59375 2.515625,-0.59375 c -0.546875,0 -0.953125,-0.25 -1.25,-0.796875 C 1.0625,-1.78125 0.984375,-2.125 0.96875,-2.765625 h 3.0625 C 3.953125,-3.40625 3.859375,-3.703125 3.609375,-4.015625 3.3125,-4.375 2.84375,-4.578125 2.328125,-4.578125 1.09375,-4.578125 0.25,-3.59375 0.25,-2.140625 0.25,-0.75 0.96875,0.09375 2.109375,0.09375 c 0.96875,0 1.703125,-0.578125 2.125,-1.65625 z m -1.21875,-1.515625 h -2.03125 c 0.109375,-0.796875 0.453125,-1.15625 1.0625,-1.15625 0.609375,0 0.84375,0.28125 0.96875,1.15625 z m 0,0"
                   id="path55" />
              </g>
              <g
                 id="use33"
                 transform="translate(17.155598,6.7340002)">
                <path
                   d="m 3.34375,-4.0625 c 0,-0.328125 -0.21875,-0.515625 -0.546875,-0.515625 -0.421875,0 -0.71875,0.21875 -1.203125,0.921875 V -4.5625 L 1.546875,-4.578125 c -0.53125,0.21875 -0.890625,0.34375 -1.484375,0.53125 v 0.15625 c 0.140625,-0.03125 0.234375,-0.03125 0.359375,-0.03125 0.25,0 0.328125,0.15625 0.328125,0.59375 v 2.484375 c 0,0.5 -0.0625,0.578125 -0.703125,0.6875 V 0 H 2.4375 V -0.15625 C 1.765625,-0.171875 1.59375,-0.328125 1.59375,-0.890625 v -2.25 c 0,-0.3125 0.4375,-0.8125 0.703125,-0.8125 0.0625,0 0.140625,0.046875 0.25,0.140625 0.171875,0.140625 0.28125,0.203125 0.40625,0.203125 0.234375,0 0.390625,-0.171875 0.390625,-0.453125 z m 0,0"
                   id="path59" />
              </g>
            </g>
          </g>
        </g>
      </g>
    </g>
  </g>
</svg>
